<svg width="20" height="20" viewBox="0 0 20 20" fill="none" xmlns="http://www.w3.org/2000/svg">
<path d="M16.6922 12.9422C16.6341 13.0003 16.5652 13.0464 16.4893 13.0779C16.4135 13.1093 16.3321 13.1255 16.25 13.1255C16.1679 13.1255 16.0865 13.1093 16.0107 13.0779C15.9348 13.0464 15.8659 13.0003 15.8078 12.9422L10 7.1336L4.19218 12.9422C4.07491 13.0595 3.91585 13.1254 3.75 13.1254C3.58414 13.1254 3.42508 13.0595 3.30781 12.9422C3.19053 12.8249 3.12465 12.6659 3.12465 12.5C3.12465 12.3342 3.19053 12.1751 3.30781 12.0578L9.55781 5.80782C9.61585 5.74971 9.68479 5.70361 9.76066 5.67215C9.83653 5.6407 9.91786 5.62451 10 5.62451C10.0821 5.62451 10.1635 5.6407 10.2393 5.67215C10.3152 5.70361 10.3841 5.74971 10.4422 5.80782L16.6922 12.0578C16.7503 12.1159 16.7964 12.1848 16.8278 12.2607C16.8593 12.3365 16.8755 12.4179 16.8755 12.5C16.8755 12.5821 16.8593 12.6635 16.8278 12.7393C16.7964 12.8152 16.7503 12.8841 16.6922 12.9422Z" fill="#292929"/>
</svg>
