<svg width="24" height="24" viewBox="0 0 24 24" fill="none" xmlns="http://www.w3.org/2000/svg">
<path d="M20.0307 9.53062L12.5307 17.0306C12.461 17.1003 12.3783 17.1557 12.2873 17.1934C12.1962 17.2312 12.0986 17.2506 12.0001 17.2506C11.9015 17.2506 11.8039 17.2312 11.7128 17.1934C11.6218 17.1557 11.5391 17.1003 11.4694 17.0306L3.96943 9.53062C3.8287 9.38988 3.74963 9.19901 3.74963 8.99999C3.74963 8.80097 3.8287 8.61009 3.96943 8.46936C4.11016 8.32863 4.30103 8.24957 4.50005 8.24957C4.69907 8.24957 4.88995 8.32863 5.03068 8.46936L12.0001 15.4397L18.9694 8.46936C19.0391 8.39968 19.1218 8.34441 19.2129 8.30669C19.3039 8.26898 19.4015 8.24957 19.5001 8.24957C19.5986 8.24957 19.6962 8.26898 19.7872 8.30669C19.8783 8.34441 19.961 8.39968 20.0307 8.46936C20.1004 8.53905 20.1556 8.62177 20.1933 8.71282C20.2311 8.80386 20.2505 8.90144 20.2505 8.99999C20.2505 9.09854 20.2311 9.19612 20.1933 9.28716C20.1556 9.37821 20.1004 9.46093 20.0307 9.53062Z" fill="#292929"/>
</svg>
